<svg 
          width="18.724395751953125" 
          height="17.334503173828125" fill="none" 
          xmlns="http://www.w3.org/2000/svg">
          <path d="M 18.60037016382301 8.223380071945126 C 17.84548193118841 6.557862977786906 16.94714622851145 5.199541578666562 15.905363219626961 4.148417161400938 L 14.812757909030081 5.292645093843595 C 15.703720798577281 6.184324239154179 16.4797969706807 7.350816161963169 17.150864436864975 8.803589660316584 C 15.364214480429894 12.676153095177389 12.828115198149435 14.515733271737743 9.362186079868758 14.515733271737743 C 8.321834659734153 14.515733271737743 7.363586197850913 14.3479670560026 6.487440530384207 14.012434839001791 L 5.303570044386265 15.25223997754106 C 6.520439077039555 15.840695702739895 7.8733110069496375 16.13492358678626 9.362186079868758 16.13492358678626 C 13.489519358354588 16.13492358678626 16.568914762956936 13.883799479672003 18.60037016382301 9.38155092229233 C 18.682039476876938 9.20048268778347 18.724395751953125 9.002717189696073 18.724395751953125 8.802465497118728 C 18.724395751953125 8.602213804541384 18.682039476876938 8.404448306453986 18.60037016382301 8.223380071945126 L 18.60037016382301 8.223380071945126 Z M 17.23525772413087 1.0125851963527916 L 16.31981422460664 0.0527651527360085 C 16.303859255384847 0.036037756196295415 16.28491201705644 0.02276788103507746 16.264056644374325 0.013714036081295858 C 16.24320127169221 0.004660191127514255 16.220847358132723 6.391688423171288e-16 16.19827106182995 0 C 16.175694765527176 3.195844211585644e-16 16.15333954128904 0.004660191127514255 16.132484168606926 0.013714036081295858 C 16.111628795924812 0.02276788103507746 16.092681557596407 0.036037756196295415 16.076726588374612 0.0527651527360085 L 13.728097932378532 2.5112357742216505 C 12.433206166012837 1.818582156608454 10.97790175097756 1.4722553906957505 9.362186079868758 1.4722553906957505 C 5.234852801382927 1.4722553906957505 2.1554585436243925 3.723379840961167 0.12400314275832218 8.22562839834084 C 0.04234844172334841 8.406700965133085 3.0516615251339076e-16 8.604464747464686 0 8.80471382351444 C 0 9.004962899564195 0.04234844172334841 9.202726681895797 0.12400314275832218 9.383799248688042 C 0.9355832237467987 11.173904062676565 1.9126576183459332 12.608762325305413 3.0552259988860646 13.688372492394372 L 0.7828303449127889 16.067457323659237 C 0.750637207724807 16.101193602562287 0.7325530397644252 16.146937212361976 0.7325530397644252 16.1946318885039 C 0.7325530397644252 16.242326564645822 0.750637207724807 16.288068801840875 0.7828303449127889 16.321805080743925 L 1.6995620777101181 17.281850059945626 C 1.7317763214321373 17.315564235088456 1.7754555218068038 17.334503173828125 1.8209984201772516 17.334503173828125 C 1.8665413185476993 17.334503173828125 1.9102205189223658 17.315564235088456 1.942434762644385 17.281850059945626 L 17.23525772413087 1.267158060597976 C 17.251230452792313 1.25044926258301 17.263901157000685 1.2306071620559789 17.272546531578026 1.2087664298785579 C 17.281191906155367 1.1869256977011369 17.28564283259778 1.1635145932222999 17.28564283259778 1.1398716284753838 C 17.28564283259778 1.1162286637284677 17.281191906155367 1.0928175592496308 17.272546531578026 1.0709768270722098 C 17.263901157000685 1.0491360948947888 17.251230452792313 1.0292939943677577 17.23525772413087 1.0125851963527916 Z M 1.5735088697163555 8.803589660316584 C 3.3623063731110903 4.9310262254557795 5.898404180878074 3.0914457057442677 9.362186079868758 3.0914457057442677 C 10.53338672691103 3.0914457057442677 11.598290762430718 3.3019407606838858 12.564413208190558 3.7299017718947614 L 11.054780098398144 5.310860929983705 C 10.339836435814908 4.911378119270659 9.521218174338197 4.763117505478266 8.719690097464467 4.887950460429255 C 7.918162020590737 5.012783415380244 7.176168039671038 5.404098917521289 6.6031688673528395 6.0041707384012675 C 6.030169695034641 6.604242559281246 5.656508330402297 7.381294418992962 5.537307299165641 8.220692512065515 C 5.418106267928985 9.060090605138068 5.5596780032353506 9.917385661135956 5.941137875085767 10.66610846242245 L 4.149763249805514 12.542119968111864 C 3.1583013718865787 11.625703227303156 2.3036302729248463 10.38409929038685 1.5735088697163555 8.803589660316584 Z M 6.871183645392731 8.803589660316584 C 6.8715596155699545 8.407033199796127 6.961252539819375 8.016161402827528 7.132976631905324 7.6627273544443115 C 7.304700723991273 7.309293306061096 7.553612463178645 7.003265054161043 7.859491702822397 6.769502141585515 C 8.165370942466149 6.535739229009987 8.5195912872301 6.380835128347555 8.893376644110186 6.317373037119262 C 9.267162000990272 6.253910945890969 9.649970970753357 6.2836807083732875 10.01070594132497 6.404264401071757 L 6.985211376819617 9.572705334485558 C 6.909378863920403 9.324069500022947 6.870910465012238 9.064600190438808 6.871183645392731 8.803589660316584 L 6.871183645392731 8.803589660316584 Z" fill="rgb(216.00000232458115,114.0000008046627,52.000000700354576)"/>
        </svg>